<mxfile host="app.diagrams.net" modified="2023-08-16T10:27:45.583Z" agent="Mozilla/5.0 (Windows NT 10.0; Win64; x64) AppleWebKit/537.36 (KHTML, like Gecko) Chrome/115.0.0.0 Safari/537.36" etag="F3g3P-phhPJbF0yAWZvX" version="21.6.6" type="github">
  <diagram name="Page-1" id="8AWrjmFzbdy7yOJ-H6Gz">
    <mxGraphModel dx="1618" dy="1771" grid="1" gridSize="10" guides="1" tooltips="1" connect="1" arrows="1" fold="1" page="1" pageScale="1" pageWidth="1169" pageHeight="827" math="0" shadow="0">
      <root>
        <mxCell id="0" />
        <mxCell id="1" parent="0" />
        <mxCell id="-YYmeTdNl_0VJhUxZr3o-33" style="edgeStyle=orthogonalEdgeStyle;rounded=0;orthogonalLoop=1;jettySize=auto;html=1;exitX=0.5;exitY=1;exitDx=0;exitDy=0;entryX=0.5;entryY=0;entryDx=0;entryDy=0;endArrow=none;endFill=0;" edge="1" parent="1" source="-YYmeTdNl_0VJhUxZr3o-2" target="-YYmeTdNl_0VJhUxZr3o-3">
          <mxGeometry relative="1" as="geometry" />
        </mxCell>
        <mxCell id="-YYmeTdNl_0VJhUxZr3o-2" value="Attack Vector &lt;br&gt;Service" style="shape=hexagon;perimeter=hexagonPerimeter2;whiteSpace=wrap;html=1;fixedSize=1;" vertex="1" parent="1">
          <mxGeometry x="500" y="360" width="120" height="80" as="geometry" />
        </mxCell>
        <mxCell id="-YYmeTdNl_0VJhUxZr3o-3" value="Attack Vector&lt;br&gt;Task" style="rounded=1;whiteSpace=wrap;html=1;fillColor=#dae8fc;strokeColor=#6c8ebf;" vertex="1" parent="1">
          <mxGeometry x="500" y="470" width="120" height="60" as="geometry" />
        </mxCell>
        <mxCell id="-YYmeTdNl_0VJhUxZr3o-11" style="edgeStyle=orthogonalEdgeStyle;rounded=0;orthogonalLoop=1;jettySize=auto;html=1;exitX=1;exitY=0.5;exitDx=0;exitDy=0;" edge="1" parent="1" source="-YYmeTdNl_0VJhUxZr3o-5" target="-YYmeTdNl_0VJhUxZr3o-3">
          <mxGeometry relative="1" as="geometry" />
        </mxCell>
        <mxCell id="-YYmeTdNl_0VJhUxZr3o-5" value="Attack Vector image" style="rounded=0;whiteSpace=wrap;html=1;" vertex="1" parent="1">
          <mxGeometry x="220" y="470" width="120" height="60" as="geometry" />
        </mxCell>
        <mxCell id="-YYmeTdNl_0VJhUxZr3o-15" style="rounded=0;orthogonalLoop=1;jettySize=auto;html=1;exitX=0.4;exitY=0.1;exitDx=0;exitDy=0;exitPerimeter=0;entryX=0.5;entryY=1;entryDx=0;entryDy=0;" edge="1" parent="1" source="-YYmeTdNl_0VJhUxZr3o-6" target="-YYmeTdNl_0VJhUxZr3o-13">
          <mxGeometry relative="1" as="geometry">
            <mxPoint x="963.230769230769" y="533.2307692307693" as="targetPoint" />
          </mxGeometry>
        </mxCell>
        <mxCell id="-YYmeTdNl_0VJhUxZr3o-16" style="rounded=0;orthogonalLoop=1;jettySize=auto;html=1;exitX=0.4;exitY=0.1;exitDx=0;exitDy=0;exitPerimeter=0;" edge="1" parent="1" source="-YYmeTdNl_0VJhUxZr3o-6" target="-YYmeTdNl_0VJhUxZr3o-9">
          <mxGeometry relative="1" as="geometry" />
        </mxCell>
        <mxCell id="-YYmeTdNl_0VJhUxZr3o-6" value="" style="ellipse;shape=cloud;whiteSpace=wrap;html=1;" vertex="1" parent="1">
          <mxGeometry x="790" y="580" width="120" height="80" as="geometry" />
        </mxCell>
        <mxCell id="-YYmeTdNl_0VJhUxZr3o-12" style="edgeStyle=orthogonalEdgeStyle;rounded=0;orthogonalLoop=1;jettySize=auto;html=1;entryX=1;entryY=0.5;entryDx=0;entryDy=0;exitX=0;exitY=0.5;exitDx=0;exitDy=0;dashed=1;" edge="1" parent="1" source="-YYmeTdNl_0VJhUxZr3o-13" target="-YYmeTdNl_0VJhUxZr3o-9">
          <mxGeometry relative="1" as="geometry">
            <mxPoint x="1010" y="190" as="sourcePoint" />
          </mxGeometry>
        </mxCell>
        <mxCell id="-YYmeTdNl_0VJhUxZr3o-10" style="edgeStyle=orthogonalEdgeStyle;rounded=0;orthogonalLoop=1;jettySize=auto;html=1;exitX=0;exitY=0.5;exitDx=0;exitDy=0;entryX=1;entryY=0.5;entryDx=0;entryDy=0;" edge="1" parent="1" source="-YYmeTdNl_0VJhUxZr3o-9" target="-YYmeTdNl_0VJhUxZr3o-3">
          <mxGeometry relative="1" as="geometry" />
        </mxCell>
        <mxCell id="-YYmeTdNl_0VJhUxZr3o-9" value="Public IP" style="ellipse;whiteSpace=wrap;html=1;aspect=fixed;" vertex="1" parent="1">
          <mxGeometry x="660" y="460" width="80" height="80" as="geometry" />
        </mxCell>
        <mxCell id="-YYmeTdNl_0VJhUxZr3o-13" value="DNS&lt;br&gt;entry" style="rhombus;whiteSpace=wrap;html=1;fillColor=#dae8fc;strokeColor=#6c8ebf;" vertex="1" parent="1">
          <mxGeometry x="920" y="460" width="80" height="80" as="geometry" />
        </mxCell>
        <mxCell id="-YYmeTdNl_0VJhUxZr3o-20" style="rounded=0;orthogonalLoop=1;jettySize=auto;html=1;exitX=0.5;exitY=0;exitDx=0;exitDy=0;exitPerimeter=0;entryX=0.55;entryY=0.95;entryDx=0;entryDy=0;entryPerimeter=0;" edge="1" parent="1" source="-YYmeTdNl_0VJhUxZr3o-17" target="-YYmeTdNl_0VJhUxZr3o-6">
          <mxGeometry relative="1" as="geometry" />
        </mxCell>
        <mxCell id="-YYmeTdNl_0VJhUxZr3o-17" value="User" style="shape=umlActor;verticalLabelPosition=bottom;verticalAlign=top;html=1;outlineConnect=0;" vertex="1" parent="1">
          <mxGeometry x="840" y="700" width="30" height="60" as="geometry" />
        </mxCell>
        <mxCell id="-YYmeTdNl_0VJhUxZr3o-36" style="edgeStyle=orthogonalEdgeStyle;rounded=0;orthogonalLoop=1;jettySize=auto;html=1;exitX=0.5;exitY=1;exitDx=0;exitDy=0;endArrow=none;endFill=0;" edge="1" parent="1" source="-YYmeTdNl_0VJhUxZr3o-21" target="-YYmeTdNl_0VJhUxZr3o-24">
          <mxGeometry relative="1" as="geometry" />
        </mxCell>
        <mxCell id="-YYmeTdNl_0VJhUxZr3o-21" value="ECR" style="shape=process;whiteSpace=wrap;html=1;backgroundOutline=1;" vertex="1" parent="1">
          <mxGeometry x="220" y="180" width="120" height="60" as="geometry" />
        </mxCell>
        <mxCell id="-YYmeTdNl_0VJhUxZr3o-31" style="edgeStyle=orthogonalEdgeStyle;rounded=0;orthogonalLoop=1;jettySize=auto;html=1;exitX=0.5;exitY=1;exitDx=0;exitDy=0;entryX=0.5;entryY=0;entryDx=0;entryDy=0;endArrow=none;endFill=0;" edge="1" parent="1" source="-YYmeTdNl_0VJhUxZr3o-22" target="-YYmeTdNl_0VJhUxZr3o-30">
          <mxGeometry relative="1" as="geometry" />
        </mxCell>
        <mxCell id="-YYmeTdNl_0VJhUxZr3o-22" value="ECS" style="shape=process;whiteSpace=wrap;html=1;backgroundOutline=1;" vertex="1" parent="1">
          <mxGeometry x="500" y="180" width="120" height="60" as="geometry" />
        </mxCell>
        <mxCell id="-YYmeTdNl_0VJhUxZr3o-35" style="edgeStyle=orthogonalEdgeStyle;rounded=0;orthogonalLoop=1;jettySize=auto;html=1;exitX=0.5;exitY=1;exitDx=0;exitDy=0;entryX=0.5;entryY=0;entryDx=0;entryDy=0;endArrow=none;endFill=0;" edge="1" parent="1" source="-YYmeTdNl_0VJhUxZr3o-23" target="-YYmeTdNl_0VJhUxZr3o-13">
          <mxGeometry relative="1" as="geometry" />
        </mxCell>
        <mxCell id="-YYmeTdNl_0VJhUxZr3o-23" value="Route 66" style="shape=process;whiteSpace=wrap;html=1;backgroundOutline=1;" vertex="1" parent="1">
          <mxGeometry x="900" y="180" width="120" height="60" as="geometry" />
        </mxCell>
        <mxCell id="-YYmeTdNl_0VJhUxZr3o-34" style="edgeStyle=orthogonalEdgeStyle;rounded=0;orthogonalLoop=1;jettySize=auto;html=1;exitX=0.5;exitY=1;exitDx=0;exitDy=0;endArrow=none;endFill=0;" edge="1" parent="1" source="-YYmeTdNl_0VJhUxZr3o-24" target="-YYmeTdNl_0VJhUxZr3o-5">
          <mxGeometry relative="1" as="geometry" />
        </mxCell>
        <mxCell id="-YYmeTdNl_0VJhUxZr3o-24" value="av&lt;br&gt;repository" style="shape=hexagon;perimeter=hexagonPerimeter2;whiteSpace=wrap;html=1;fixedSize=1;" vertex="1" parent="1">
          <mxGeometry x="220" y="360" width="120" height="80" as="geometry" />
        </mxCell>
        <mxCell id="-YYmeTdNl_0VJhUxZr3o-39" style="edgeStyle=orthogonalEdgeStyle;rounded=0;orthogonalLoop=1;jettySize=auto;html=1;exitX=0.5;exitY=1;exitDx=0;exitDy=0;exitPerimeter=0;entryX=0.5;entryY=0;entryDx=0;entryDy=0;" edge="1" parent="1" source="-YYmeTdNl_0VJhUxZr3o-25" target="-YYmeTdNl_0VJhUxZr3o-26">
          <mxGeometry relative="1" as="geometry" />
        </mxCell>
        <mxCell id="-YYmeTdNl_0VJhUxZr3o-25" value="Github &lt;br&gt;repo" style="shape=cylinder3;whiteSpace=wrap;html=1;boundedLbl=1;backgroundOutline=1;size=15;fillColor=#fff2cc;strokeColor=#d6b656;" vertex="1" parent="1">
          <mxGeometry x="520" y="-60" width="80" height="80" as="geometry" />
        </mxCell>
        <mxCell id="-YYmeTdNl_0VJhUxZr3o-27" value="Build new image and &lt;br&gt;deploy to ECR" style="rounded=0;orthogonalLoop=1;jettySize=auto;html=1;exitX=0.5;exitY=1;exitDx=0;exitDy=0;entryX=0.5;entryY=0;entryDx=0;entryDy=0;" edge="1" parent="1" source="-YYmeTdNl_0VJhUxZr3o-26" target="-YYmeTdNl_0VJhUxZr3o-21">
          <mxGeometry relative="1" as="geometry" />
        </mxCell>
        <mxCell id="-YYmeTdNl_0VJhUxZr3o-28" value="Run new image" style="edgeStyle=orthogonalEdgeStyle;rounded=0;orthogonalLoop=1;jettySize=auto;html=1;exitX=0.5;exitY=1;exitDx=0;exitDy=0;entryX=0.5;entryY=0;entryDx=0;entryDy=0;" edge="1" parent="1" source="-YYmeTdNl_0VJhUxZr3o-26" target="-YYmeTdNl_0VJhUxZr3o-22">
          <mxGeometry relative="1" as="geometry" />
        </mxCell>
        <mxCell id="-YYmeTdNl_0VJhUxZr3o-29" value="update Route 66 &lt;br&gt;to new public IP" style="rounded=0;orthogonalLoop=1;jettySize=auto;html=1;exitX=0.5;exitY=1;exitDx=0;exitDy=0;entryX=0.5;entryY=0;entryDx=0;entryDy=0;" edge="1" parent="1" source="-YYmeTdNl_0VJhUxZr3o-26" target="-YYmeTdNl_0VJhUxZr3o-23">
          <mxGeometry relative="1" as="geometry" />
        </mxCell>
        <mxCell id="-YYmeTdNl_0VJhUxZr3o-26" value="Action" style="rounded=1;whiteSpace=wrap;html=1;fillColor=#fff2cc;strokeColor=#d6b656;" vertex="1" parent="1">
          <mxGeometry x="500" y="50" width="120" height="60" as="geometry" />
        </mxCell>
        <mxCell id="-YYmeTdNl_0VJhUxZr3o-32" style="edgeStyle=orthogonalEdgeStyle;rounded=0;orthogonalLoop=1;jettySize=auto;html=1;exitX=0.5;exitY=1;exitDx=0;exitDy=0;entryX=0.5;entryY=0;entryDx=0;entryDy=0;endArrow=none;endFill=0;" edge="1" parent="1" source="-YYmeTdNl_0VJhUxZr3o-30" target="-YYmeTdNl_0VJhUxZr3o-2">
          <mxGeometry relative="1" as="geometry" />
        </mxCell>
        <mxCell id="-YYmeTdNl_0VJhUxZr3o-30" value="Attack Vector&lt;br&gt;Cluster" style="rounded=0;whiteSpace=wrap;html=1;" vertex="1" parent="1">
          <mxGeometry x="500" y="270" width="120" height="60" as="geometry" />
        </mxCell>
      </root>
    </mxGraphModel>
  </diagram>
</mxfile>
